<svg width="52" height="54" viewBox="0 0 52 54" fill="none" xmlns="http://www.w3.org/2000/svg">
<path fill-rule="evenodd" clip-rule="evenodd" d="M33.0882 47.5588C33.9167 47.5588 34.5882 46.8873 34.5882 46.0588V4.58826C34.5882 3.75983 33.9167 3.08826 33.0882 3.08826H1.5C0.671573 3.08826 0 3.75983 0 4.58826V19.2263C3.02734 13.7827 8.76953 10.0677 15.4411 10.0677C25.324 10.0677 33.1675 18.2201 33.1675 28.067C33.1675 30.8856 32.0613 33.8362 30.8952 36.2803C29.6647 38.8596 28.0553 41.5011 26.4722 43.8685C25.603 45.1685 24.7217 46.4154 23.885 47.5588H33.0882ZM6.9971 47.5588C6.16041 46.4154 5.27912 45.1685 4.40987 43.8685C2.83245 41.5095 1.22885 38.8783 0 36.3078V46.0588C0 46.8873 0.671572 47.5588 1.5 47.5588H6.9971Z" fill="url(#paint0_linear_7646_772)"/>
<path d="M16.0184 26.1339C15.4783 26.4429 15.4823 27.2232 16.0255 27.5267L50.6921 46.8939C51.2253 47.1918 51.8822 46.8063 51.8822 46.1955V6.99379C51.8822 6.37934 51.2183 5.99427 50.6849 6.29941L16.0184 26.1339Z" fill="#254E5F"/>
<path d="M29.6471 28.5911C29.6471 35.1722 19.8992 47.68 16.553 51.7798C15.9712 52.4926 14.9113 52.4926 14.3294 51.7798C10.9833 47.68 1.23535 35.1722 1.23535 28.5911C1.23535 20.6464 7.59554 14.2059 15.4412 14.2059C23.2869 14.2059 29.6471 20.6464 29.6471 28.5911Z" fill="#F5A91B"/>
<circle cx="15.2868" cy="27.0221" r="4.78677" fill="white"/>
<defs>
<linearGradient id="paint0_linear_7646_772" x1="17.2941" y1="3.08826" x2="7.51732" y2="47.446" gradientUnits="userSpaceOnUse">
<stop stop-color="#F5A91B" stop-opacity="0.6"/>
<stop offset="0.234375" stop-color="#F5A91B" stop-opacity="0.78"/>
<stop offset="0.703125" stop-color="#F5A91B" stop-opacity="0.5"/>
</linearGradient>
</defs>
</svg>
