<svg width="30" height="31" viewBox="0 0 30 31" fill="none" xmlns="http://www.w3.org/2000/svg">
<path fill-rule="evenodd" clip-rule="evenodd" d="M17.6144 27.2068H18.7444C19.5334 27.2068 20.173 26.5672 20.173 25.7782V4.96817C20.173 4.1792 19.5334 3.5396 18.7444 3.5396H17.6144C17.8575 3.95985 17.9967 4.44776 17.9967 4.96817V25.7782C17.9967 26.2986 17.8575 26.7865 17.6144 27.2068Z" fill="#488BCA"/>
<path d="M8.35493 15.5177L29.8027 27.5V3.24639L8.35493 15.5177Z" fill="#254E5F"/>
<path d="M0 3.5396H2.49781V27.2068H0V3.5396Z" fill="#488BCA"/>
<path d="M3.87554 3.5396H15.1395C15.9285 3.5396 16.5681 4.1792 16.5681 4.96817V25.7782C16.5681 26.5672 15.9285 27.2068 15.1395 27.2068H3.87554V3.5396Z" fill="#488BCA"/>
</svg>
